HIERARCHY
ROOT Hips
{
	OFFSET 0.000000 0.000000 0.000000
	CHANNELS 6 Xposition Yposition Zposition Xrotation Yrotation Zrotation
	JOINT LeftUpLeg_virtual
	{
		OFFSET 0.000000 0.000000 0.000000
		CHANNELS 3 Xrotation Yrotation Zrotation
		JOINT LeftUpLeg
		{
			OFFSET 13.026900 -6.336304 -1.092800
			CHANNELS 3 Xrotation Yrotation Zrotation
			JOINT LeftLeg
			{
				OFFSET 0.524474 -46.096886 9.782700
				CHANNELS 3 Xrotation Yrotation Zrotation
				JOINT LeftFoot
				{
					OFFSET -0.524474 -53.427422 -12.948200
					CHANNELS 3 Xrotation Yrotation Zrotation
					JOINT LeftToeBase
					{
						OFFSET 0.192200 -14.009700 16.364100
						CHANNELS 3 Xrotation Yrotation Zrotation
						JOINT LeftToe_End
						{
							OFFSET -1.784700 -0.561700 9.474800
							CHANNELS 3 Xrotation Yrotation Zrotation
							End Site
							{
								OFFSET 0 0 0
							}
						}
					}
				}
			}
		}
	}
	JOINT RightUpLeg_virtual
	{
		OFFSET 0.000000 0.000000 0.000000
		CHANNELS 3 Xrotation Yrotation Zrotation
		JOINT RightUpLeg
		{
			OFFSET -12.883000 -6.336304 -1.092800
			CHANNELS 3 Xrotation Yrotation Zrotation
			JOINT RightLeg
			{
				OFFSET -0.524587 -46.096825 9.782800
				CHANNELS 3 Xrotation Yrotation Zrotation
				JOINT RightFoot
				{
					OFFSET 0.524587 -53.427383 -12.948300
					CHANNELS 3 Xrotation Yrotation Zrotation
					JOINT RightToeBase
					{
						OFFSET -0.192200 -14.009700 16.364100
						CHANNELS 3 Xrotation Yrotation Zrotation
						JOINT RightToe_End
						{
							OFFSET 1.784700 -0.561700 9.474800
							CHANNELS 3 Xrotation Yrotation Zrotation
							End Site
							{
								OFFSET 0 0 0
							}
						}
					}
				}
			}
		}
	}
	JOINT Spine_virtual
	{
		OFFSET 0.000000 0.000000 0.000000
		CHANNELS 3 Xrotation Yrotation Zrotation
		JOINT Spine
		{
			OFFSET 0.072000 7.257294 -0.789700
			CHANNELS 3 Xrotation Yrotation Zrotation
			JOINT Spine1
			{
				OFFSET 0.000000 12.508769 -0.658067
				CHANNELS 3 Xrotation Yrotation Zrotation
				JOINT Spine1_split
				{
					OFFSET 0.000000 12.508769 -0.658067
					CHANNELS 3 Xrotation Yrotation Zrotation
					JOINT Spine2
					{
						OFFSET 0.000000 12.508769 -0.658067
						CHANNELS 3 Xrotation Yrotation Zrotation
						JOINT Neck_virtual
						{
							OFFSET 0.000000 0.000000 0.000000
							CHANNELS 3 Xrotation Yrotation Zrotation
							JOINT Neck
							{
								OFFSET 0.000000 14.033295 7.520400
								CHANNELS 3 Xrotation Yrotation Zrotation
								JOINT Head
								{
									OFFSET 0.000000 8.198502 5.703100
									CHANNELS 3 Xrotation Yrotation Zrotation
									JOINT HeadTop_End
									{
										OFFSET 0.000000 17.760803 13.332701
										CHANNELS 3 Xrotation Yrotation Zrotation
										End Site
										{
											OFFSET 0 0 0
										}
									}
								}
							}
						}
						JOINT LeftShoulder_virtual
						{
							OFFSET 0.000000 0.000000 0.000000
							CHANNELS 3 Xrotation Yrotation Zrotation
							JOINT LeftShoulder
							{
								OFFSET 6.292450 5.785301 -0.669000
								CHANNELS 3 Xrotation Yrotation Zrotation
								JOINT LeftShoulder_split
								{
									OFFSET 6.292450 5.785301 -0.669000
									CHANNELS 3 Xrotation Yrotation Zrotation
									JOINT LeftArm
									{
										OFFSET 13.907140 -6.093903 1.965100
										CHANNELS 3 Xrotation Yrotation Zrotation
										JOINT LeftForeArm
										{
											OFFSET 34.140198 0.000000 0.000000
											CHANNELS 3 Xrotation Yrotation Zrotation
											JOINT LeftHand
											{
												OFFSET 40.960209 0.000000 0.000000
												CHANNELS 3 Xrotation Yrotation Zrotation
												End Site
												{
													OFFSET 0 0 0
												}
											}
										}
									}
								}
							}
						}
						JOINT RightShoulder_virtual
						{
							OFFSET 0.000000 0.000000 0.000000
							CHANNELS 3 Xrotation Yrotation Zrotation
							JOINT RightShoulder
							{
								OFFSET -6.292450 5.785301 -0.669000
								CHANNELS 3 Xrotation Yrotation Zrotation
								JOINT RightShoulder_split
								{
									OFFSET -6.292450 5.785301 -0.669000
									CHANNELS 3 Xrotation Yrotation Zrotation
									JOINT RightArm
									{
										OFFSET -13.907140 -6.093903 1.965100
										CHANNELS 3 Xrotation Yrotation Zrotation
										JOINT RightForeArm
										{
											OFFSET -34.140198 0.000000 0.000000
											CHANNELS 3 Xrotation Yrotation Zrotation
											JOINT RightHand
											{
												OFFSET -40.960209 0.000000 0.000000
												CHANNELS 3 Xrotation Yrotation Zrotation
												End Site
												{
													OFFSET 0 0 0
												}
											}
										}
									}
								}
							}
						}
					}
				}
			}
		}
	}
}
MOTION
Frames: 7
Frame Time: 0.03333333
0.865272 66.261169 13.097992 0.000000 0.000000 0.000000 -3.222321 4.198926 0.328956 -88.266029 -9.843550 9.748942 78.821121 3.914501 2.232191 16.629839 -6.492746 -7.441732 -4.827892 -0.039286 -1.140011 0.000000 0.000000 0.000000 -3.814176 5.438148 0.549856 -89.933278 7.506654 -10.096724 81.957680 -3.722107 -2.748605 14.290525 2.190999 9.207302 2.562459 0.990843 0.423610 0.000000 0.000000 0.000000 -2.688934 0.123375 -0.629297 11.031385 0.019459 -0.019135 0.242430 1.010529 -0.550441 0.992931 0.569928 0.136070 0.000000 0.000000 0.000000 -0.204221 0.528038 0.104527 -1.864054 -0.482642 -1.588583 -11.166681 -5.340454 -5.220913 0.000000 0.000000 0.000000 -0.714736 0.851762 -0.244427 1.620264 -16.539667 -2.972332 -1.173508 -0.228680 -1.451487 -0.178663 -17.204371 -59.252704 -2.319968 -52.589957 -1.874173 0.000000 0.000000 0.000000 0.317810 0.888417 0.207294 3.507981 -7.968906 8.720288 4.334657 3.049237 -3.659212 -9.297946 38.593810 72.602944 1.358573 60.701530 -3.058654 0.000000 0.000000 0.000000 
0.953235 66.288208 12.942619 0.000000 0.000000 0.000000 -3.008895 4.158340 0.331947 -88.290256 -10.027227 9.766373 78.618824 3.790151 2.177221 16.814543 -6.538249 -7.499461 -4.741992 0.002385 -1.225417 0.000000 0.000000 0.000000 -3.794779 5.460447 0.540030 -89.986909 7.555881 -10.087564 81.842325 -3.740066 -2.746424 14.801693 1.971411 9.123348 2.574536 0.954027 0.595633 0.000000 0.000000 0.000000 -2.648482 0.057260 -0.567774 11.049765 0.001450 -0.017547 0.371020 1.013737 -0.572570 1.064854 0.683151 0.234581 0.000000 0.000000 0.000000 0.021192 0.504178 0.148104 -1.824229 -0.544011 -1.467424 -11.208521 -5.691718 -5.188109 0.000000 0.000000 0.000000 -0.685887 0.897875 -0.219201 1.602032 -16.379705 -2.594669 -1.179878 -0.842486 -1.108400 -0.509511 -17.378837 -59.724677 -1.747050 -52.720222 -1.705568 0.000000 0.000000 0.000000 0.378331 0.852769 0.174461 3.432456 -7.891188 8.492425 4.136150 2.943112 -3.076928 -9.530056 38.842804 73.060833 1.281742 59.521397 -2.924554 0.000000 0.000000 0.000000 
1.006363 66.226723 12.830315 0.000000 0.000000 0.000000 -2.724878 4.027574 0.259513 -88.555267 -10.149600 9.912329 78.603798 3.902879 1.980002 17.015062 -6.138954 -7.474121 -4.510730 0.085513 -1.332404 0.000000 0.000000 0.000000 -3.660378 5.552868 0.449925 -90.101233 7.705807 -9.966406 81.918912 -3.613103 -2.880285 15.430934 1.676300 9.270571 2.142266 0.938117 0.682939 0.000000 0.000000 0.000000 -2.442459 0.077262 -0.538916 11.240858 -0.012170 0.024915 0.673820 0.994252 -0.643035 1.054600 0.874325 0.255498 0.000000 0.000000 0.000000 0.362705 0.481800 0.132125 -1.501907 -0.701524 -1.258192 -11.680471 -6.106576 -4.981462 0.000000 0.000000 0.000000 -0.425923 0.923629 -0.244364 1.773756 -15.570646 -1.034797 -0.641415 -1.018888 -0.838933 -2.278024 -17.478637 -61.716995 -0.958171 -53.374882 -1.363834 0.000000 0.000000 0.000000 0.664115 0.806505 0.077992 3.309704 -7.983774 7.586696 4.009010 2.743246 -2.368212 -10.665890 39.141929 74.269483 0.948436 58.130750 -2.379651 0.000000 0.000000 0.000000 
0.986147 66.109322 12.759037 0.000000 0.000000 0.000000 -2.354074 3.870203 0.122823 -88.921686 -10.222593 10.053430 78.750859 4.167276 1.753071 17.011826 -5.411776 -7.461240 -4.214039 0.189697 -1.426763 0.000000 0.000000 0.000000 -3.367723 5.726586 0.332983 -90.279255 7.923103 -9.683115 81.938576 -3.431720 -3.160161 15.873611 1.292039 9.551803 1.472334 0.943159 0.661393 0.000000 0.000000 0.000000 -2.037797 0.208648 -0.549231 11.569868 -0.030445 0.070838 1.110868 0.950265 -0.737964 1.032150 0.971151 0.147340 0.000000 0.000000 0.000000 0.794718 0.459496 0.067200 -0.928034 -0.901829 -0.970695 -12.525308 -6.454198 -4.695163 0.000000 0.000000 0.000000 0.029652 0.910269 -0.290261 2.065031 -14.260323 1.447850 -0.091193 -0.771283 -0.656184 -5.175061 -17.511797 -64.924343 -0.131676 -54.245434 -0.953558 0.000000 0.000000 0.000000 1.135108 0.749958 -0.055178 3.184407 -8.294965 6.143142 4.090324 2.594941 -1.661701 -12.620046 39.354027 76.079517 0.542459 56.844147 -1.623771 0.000000 0.000000 0.000000 
0.962630 65.992432 12.763145 0.000000 0.000000 0.000000 -1.895925 3.747449 -0.007805 -89.280442 -10.231885 10.103755 79.027372 4.404566 1.613282 16.709629 -4.632236 -7.657511 -3.970678 0.284061 -1.452381 0.000000 0.000000 0.000000 -2.954455 5.953253 0.238943 -90.548829 8.091022 -9.221793 81.792779 -3.314929 -3.547902 16.031716 0.716649 9.874203 0.851319 0.962699 0.538352 0.000000 0.000000 0.000000 -1.435753 0.482307 -0.581174 11.970247 -0.066146 0.069903 1.643637 0.890818 -0.822974 1.103731 0.689563 0.082771 0.000000 0.000000 0.000000 1.273454 0.432822 -0.021150 -0.149766 -1.144902 -0.608518 -13.571887 -6.571006 -4.415331 0.000000 0.000000 0.000000 0.652797 0.867541 -0.332989 2.383296 -12.605884 4.392652 0.198753 -0.375070 -0.832187 -8.690059 -17.542509 -68.800714 0.552060 -55.224668 -0.573467 0.000000 0.000000 0.000000 1.732615 0.690724 -0.190906 3.088468 -8.804174 4.403742 4.294229 2.566397 -1.079003 -15.050552 39.316242 78.347952 0.295715 55.884526 -0.901251 0.000000 0.000000 0.000000 
0.986367 65.928963 12.858891 0.000000 0.000000 0.000000 -1.335372 3.880011 -0.065454 -89.626063 -10.145701 9.985518 79.387398 4.461914 1.594753 16.087594 -4.051270 -8.135254 -3.905969 0.343386 -1.352993 0.000000 0.000000 0.000000 -2.388359 6.226015 0.228225 -90.986780 8.208526 -8.627877 81.545936 -3.289750 -3.999118 16.018180 -0.086623 10.312931 0.390019 0.974236 0.346697 0.000000 0.000000 0.000000 -0.651381 0.967074 -0.612509 12.356161 -0.129925 -0.029412 2.237486 0.823630 -0.870576 1.078264 0.365489 -0.064117 0.000000 0.000000 0.000000 1.775190 0.411745 -0.106872 0.721221 -1.393236 -0.200536 -14.620539 -6.430714 -4.229637 0.000000 0.000000 0.000000 1.384735 0.821123 -0.367133 2.667544 -10.877380 7.296234 0.266197 -0.039321 -1.349360 -12.100757 -17.506162 -72.727123 1.015759 -56.242892 -0.271914 0.000000 0.000000 0.000000 2.389156 0.642875 -0.301255 3.038489 -9.436464 2.622930 4.533914 2.633520 -0.638311 -17.641568 38.863233 80.875239 0.320143 55.311985 -0.391021 0.000000 0.000000 0.000000 
1.030410 65.914070 13.034302 0.000000 0.000000 0.000000 -0.597072 4.305581 -0.027685 -90.000563 -9.904462 9.762282 79.749726 4.300464 1.659155 15.183779 -3.767602 -8.823326 -3.971673 0.364798 -1.132599 0.000000 0.000000 0.000000 -1.617138 6.622090 0.325199 -91.631284 8.321211 -8.008774 81.353741 -3.317219 -4.500988 15.978094 -1.062820 10.961483 -0.011400 0.964978 0.113200 0.000000 0.000000 0.000000 0.309928 1.610921 -0.626919 12.720957 -0.232582 -0.241464 2.838814 0.773294 -0.883859 1.054727 0.115684 -0.194654 0.000000 0.000000 0.000000 2.270163 0.415119 -0.180396 1.544923 -1.677983 0.162831 -15.492418 -6.144891 -4.167546 0.000000 0.000000 0.000000 2.157722 0.782043 -0.400718 2.896920 -9.327405 9.729407 0.319520 0.114739 -1.686144 -14.870401 -17.343177 -76.286157 1.368899 -57.442649 0.055077 0.000000 0.000000 0.000000 3.053879 0.645827 -0.381888 3.016098 -10.072619 0.988141 4.613780 2.738980 -0.311452 -20.106453 37.882295 83.395715 0.566898 55.106226 -0.140918 0.000000 0.000000 0.000000 
